<!DOCTYPE svg PUBLIC "-//W3C//DTD SVG 20010904//EN" "http://www.w3.org/TR/2001/REC-SVG-20010904/DTD/svg10.dtd">
<svg version="1.0" xmlns="http://www.w3.org/2000/svg" width="99px" height="53px" viewBox="0 0 990 530" preserveAspectRatio="xMidYMid meet">
<g id="layer101" fill="#417f18" stroke="none">
<path d="M24 508 l-24 -19 0 -224 0 -224 26 -20 c26 -21 37 -21 469 -21 432 0 443 0 469 21 l26 20 0 224 0 224 -26 20 c-25 20 -38 20 -470 19 -422 -1 -447 -2 -470 -20z"/>
</g>
<g id="layer102" fill="#d62600" stroke="none">
<path d="M24 508 l-24 -19 0 -224 0 -224 26 -20 c26 -21 37 -21 469 -21 432 0 443 0 469 21 l26 20 0 224 0 224 -26 20 c-25 20 -38 20 -470 19 -422 -1 -447 -2 -470 -20z m294 -43 c46 -39 65 -96 65 -200 -1 -148 -48 -225 -138 -225 -88 0 -137 77 -138 215 0 103 16 160 58 202 43 43 107 47 153 8z"/>
</g>
<g id="layer103" fill="#0458bd" stroke="none">
<path d="M24 508 l-24 -19 0 -224 0 -224 26 -20 c26 -21 37 -21 469 -21 432 0 443 0 469 21 l26 20 0 224 0 224 -26 20 c-25 20 -38 20 -470 19 -422 -1 -447 -2 -470 -20z m616 -70 l1 -73 15 35 c42 97 131 127 181 61 34 -44 9 -85 -96 -158 -87 -60 -121 -104 -121 -156 0 -37 23 -80 56 -106 l27 -21 -50 0 c-27 0 -54 5 -61 12 -9 9 -12 75 -12 235 0 201 2 223 18 232 36 22 42 14 42 -61z m-322 27 c46 -39 65 -96 65 -200 -1 -148 -48 -225 -138 -225 -88 0 -137 77 -138 215 0 103 16 160 58 202 43 43 107 47 153 8z"/>
</g>
<g id="layer104" fill="#e55c1b" stroke="none">
</g>
<g id="layer105" fill="#f68909" stroke="none">
<path d="M24 508 l-24 -19 0 -224 0 -224 26 -20 c26 -21 37 -21 469 -21 432 0 443 0 469 21 l26 20 0 224 0 224 -26 20 c-25 20 -38 20 -470 19 -422 -1 -447 -2 -470 -20z m131 -17 c-50 -31 -87 -77 -106 -133 l-18 -53 -1 76 c0 62 4 81 21 103 18 23 28 26 77 26 l57 0 -30 -19z m313 7 c9 -9 12 -75 12 -235 0 -258 6 -243 -107 -243 l-68 0 30 19 c81 50 115 117 115 223 0 110 -43 190 -125 232 -29 16 -29 16 51 16 49 0 85 -5 92 -12z m172 -60 l1 -73 15 35 c42 97 131 127 181 61 34 -44 9 -85 -96 -158 -87 -60 -121 -104 -121 -156 0 -37 23 -80 56 -106 l27 -21 -50 0 c-27 0 -54 5 -61 12 -9 9 -12 75 -12 235 0 201 2 223 18 232 36 22 42 14 42 -61z m-322 27 c46 -39 65 -96 65 -200 -1 -148 -48 -225 -138 -225 -88 0 -137 77 -138 215 0 103 16 160 58 202 43 43 107 47 153 8z m-215 -384 c18 -18 46 -39 62 -47 29 -13 28 -13 -32 -14 -55 0 -64 3 -82 26 -17 21 -21 40 -20 93 l0 66 20 -45 c11 -25 35 -60 52 -79z"/>
</g>
<g id="layer106" fill="#3c99db" stroke="none">
<path d="M24 508 l-24 -19 0 -224 0 -224 26 -20 c26 -21 37 -21 469 -21 432 0 443 0 469 21 l26 20 0 224 0 224 -26 20 c-25 20 -38 20 -470 19 -422 -1 -447 -2 -470 -20z m131 -17 c-50 -31 -87 -77 -106 -133 l-18 -53 -1 76 c0 62 4 81 21 103 18 23 28 26 77 26 l57 0 -30 -19z m313 7 c9 -9 12 -75 12 -235 0 -258 6 -243 -107 -243 l-68 0 30 19 c81 50 115 117 115 223 0 110 -43 190 -125 232 -29 16 -29 16 51 16 49 0 85 -5 92 -12z m172 -60 l1 -73 15 35 c42 97 131 127 181 61 34 -44 9 -85 -96 -158 -89 -61 -121 -104 -121 -159 0 -37 36 -94 70 -111 23 -12 20 -13 -30 -13 -31 0 -61 5 -68 12 -9 9 -12 75 -12 235 0 201 2 223 18 232 36 22 42 14 42 -61z m310 26 c6 -14 10 -108 10 -208 0 -170 -1 -185 -21 -210 -38 -48 -49 -35 -50 62 l0 87 -13 -47 c-15 -54 -29 -74 -68 -94 -54 -28 -108 8 -108 71 0 36 36 74 120 127 82 51 110 89 110 146 0 26 -7 60 -15 76 -19 37 -19 39 5 26 12 -6 25 -22 30 -36z m-632 1 c46 -39 65 -96 65 -200 -1 -148 -48 -225 -138 -225 -88 0 -137 77 -138 215 0 103 16 160 58 202 43 43 107 47 153 8z m-215 -384 c18 -18 46 -39 62 -47 29 -13 28 -13 -32 -14 -55 0 -64 3 -82 26 -17 21 -21 40 -20 93 l0 66 20 -45 c11 -25 35 -60 52 -79z"/>
</g>
<g id="layer107" fill="#ceb864" stroke="none">
<path d="M24 508 l-24 -19 0 -224 0 -224 26 -20 c26 -21 37 -21 469 -21 432 0 443 0 469 21 l26 20 0 224 0 224 -26 20 c-25 20 -38 20 -470 19 -422 -1 -447 -2 -470 -20z m131 -17 c-50 -31 -87 -77 -106 -133 l-18 -53 -1 76 c0 62 4 81 21 103 18 23 28 26 77 26 l57 0 -30 -19z m313 7 c9 -9 12 -75 12 -235 0 -258 6 -243 -107 -243 l-68 0 30 19 c81 50 115 117 115 223 0 110 -43 190 -125 232 -29 16 -29 16 51 16 49 0 85 -5 92 -12z m172 -60 l1 -73 15 35 c42 97 131 127 181 61 34 -44 9 -85 -96 -158 -89 -61 -121 -104 -121 -159 0 -37 36 -94 70 -111 23 -12 20 -13 -30 -13 -31 0 -61 5 -68 12 -9 9 -12 75 -12 235 0 201 2 223 18 232 36 22 42 14 42 -61z m310 26 c6 -14 10 -108 10 -208 0 -170 -1 -185 -21 -210 -38 -48 -49 -35 -50 62 l0 87 -13 -47 c-15 -54 -29 -74 -68 -94 -54 -28 -108 8 -108 71 0 36 36 74 120 127 82 51 110 89 110 146 0 26 -7 60 -15 76 -19 37 -19 39 5 26 12 -6 25 -22 30 -36z m-632 1 c46 -39 65 -96 65 -200 -1 -148 -48 -225 -138 -225 -88 0 -137 77 -138 215 0 103 16 160 58 202 43 43 107 47 153 8z m-217 -382 c19 -19 48 -41 64 -49 29 -13 28 -13 -32 -14 -55 0 -64 3 -82 26 -17 22 -21 41 -21 103 l1 76 18 -53 c10 -29 34 -69 52 -89z"/>
</g>
<g id="layer108" fill="#fefefe" stroke="none">
<path d="M24 508 l-24 -19 0 -224 0 -224 26 -20 c26 -21 37 -21 469 -21 432 0 443 0 469 21 l26 20 0 224 0 224 -26 20 c-25 20 -38 20 -470 19 -422 -1 -447 -2 -470 -20z m131 -17 c-50 -31 -87 -77 -106 -133 l-18 -53 -1 76 c0 62 4 81 21 103 18 23 28 26 77 26 l57 0 -30 -19z m313 7 c9 -9 12 -75 12 -235 0 -258 6 -243 -107 -243 l-68 0 30 19 c81 50 115 117 115 223 0 110 -43 190 -125 232 -29 16 -29 16 51 16 49 0 85 -5 92 -12z m172 -60 l1 -73 15 35 c42 97 131 127 181 61 34 -44 9 -85 -96 -158 -89 -61 -121 -104 -121 -159 0 -37 36 -94 70 -111 23 -12 20 -13 -30 -13 -31 0 -61 5 -68 12 -9 9 -12 75 -12 235 0 201 2 223 18 232 36 22 42 14 42 -61z m297 50 c23 -21 23 -25 23 -218 0 -184 -1 -199 -21 -224 -38 -48 -49 -35 -49 57 l-1 82 -17 -50 c-29 -86 -108 -118 -154 -63 -45 52 -13 107 102 180 108 68 135 134 91 221 -21 42 -10 49 26 15z m-619 -23 c46 -39 65 -96 65 -200 -1 -148 -48 -225 -138 -225 -88 0 -137 77 -138 215 0 103 16 160 58 202 43 43 107 47 153 8z m-217 -382 c19 -19 48 -41 64 -49 29 -13 28 -13 -32 -14 -55 0 -64 3 -82 26 -17 22 -21 41 -21 103 l1 76 18 -53 c10 -29 34 -69 52 -89z"/>
</g>


</svg>