<svg xmlns="http://www.w3.org/2000/svg" viewBox="0 0 308.03 178.73"><defs><style>.cls-1{fill:none;stroke:#f7931e;stroke-miterlimit:10;stroke-width:8px;}.cls-2{fill:#f7931e;}.cls-3{fill:#f15a24;}.cls-4{fill:#fbb03b;}</style></defs><title>資產 7</title><g id="圖層_2" data-name="圖層 2"><g id="圖層_1-2" data-name="圖層 1"><circle class="cls-1" cx="122.81" cy="57.8" r="53.8"/><polyline class="cls-1" points="176.61 57.8 122.81 57.8 122.81 111.59 176.61 111.59 176.61 161.59 122.81 161.59"/><path class="cls-2" d="M127.3,178.73a3.89,3.89,0,0,1-2-.53,3.49,3.49,0,0,1-1.35-1.49,4.87,4.87,0,0,1-.48-2.2,5.18,5.18,0,0,1,.49-2.32,3.55,3.55,0,0,1,1.41-1.53,4.06,4.06,0,0,1,2.11-.54,3.72,3.72,0,0,1,2,.53,3.48,3.48,0,0,1,1.33,1.48,4.88,4.88,0,0,1,.47,2.17,5.49,5.49,0,0,1-.47,2.32,3.49,3.49,0,0,1-1.37,1.56A3.85,3.85,0,0,1,127.3,178.73Zm.06-8.06a3.16,3.16,0,0,0-1.73.47,3.22,3.22,0,0,0-1.17,1.35,4.55,4.55,0,0,0-.41,2,4.49,4.49,0,0,0,.4,2,3,3,0,0,0,1.13,1.31,3.13,3.13,0,0,0,1.71.46,3.07,3.07,0,0,0,2.43-1,4.08,4.08,0,0,0,.89-2.79,4,4,0,0,0-.87-2.72A3,3,0,0,0,127.36,170.67Z"/><path d="M133.51,170.81v3.37h3.07v.54h-3.07v3.86h-.59v-8.32h3.9v.55Z"/><path d="M139.05,170.81v3.37h3.06v.54h-3.06v3.86h-.6v-8.32h3.9v.55Z"/><path d="M144.58,178.58H144v-8.32h.6Z"/><path d="M152.25,178.3a5.21,5.21,0,0,1-2.11.43,4,4,0,0,1-2-.52,3.58,3.58,0,0,1-1.36-1.47,4.69,4.69,0,0,1-.48-2.15,5,5,0,0,1,.52-2.3,3.79,3.79,0,0,1,1.47-1.6,4.05,4.05,0,0,1,2.14-.57,5.59,5.59,0,0,1,1.84.31v.63a4.55,4.55,0,0,0-1.85-.39,3.54,3.54,0,0,0-1.85.48,3.27,3.27,0,0,0-1.23,1.37,4.5,4.5,0,0,0-.43,2,4.29,4.29,0,0,0,.41,1.91,3,3,0,0,0,1.16,1.29,3.33,3.33,0,0,0,1.73.45,4.62,4.62,0,0,0,2.06-.45Z"/><path d="M154.1,178.58v-8.32H158v.55h-3.31v3.3h3.07v.55h-3.07v3.39h3.5v.53Z"/><path d="M166.72,178.73a3.85,3.85,0,0,1-2-.53,3.51,3.51,0,0,1-1.36-1.49,4.87,4.87,0,0,1-.48-2.2,5.18,5.18,0,0,1,.5-2.32,3.52,3.52,0,0,1,1.4-1.53,4.09,4.09,0,0,1,2.11-.54,3.7,3.7,0,0,1,2,.53,3.42,3.42,0,0,1,1.33,1.48,4.74,4.74,0,0,1,.47,2.17,5.34,5.34,0,0,1-.47,2.32,3.47,3.47,0,0,1-1.36,1.56A3.88,3.88,0,0,1,166.72,178.73Zm.06-8.06a3.13,3.13,0,0,0-1.72.47,3.09,3.09,0,0,0-1.17,1.35,4.41,4.41,0,0,0-.42,2,4.63,4.63,0,0,0,.4,2,3,3,0,0,0,1.13,1.31,3.13,3.13,0,0,0,1.71.46,3.09,3.09,0,0,0,2.44-1,4.08,4.08,0,0,0,.88-2.79,4,4,0,0,0-.87-2.72A3,3,0,0,0,166.78,170.67Z"/><path d="M172.94,170.81v3.37H176v.54h-3.06v3.86h-.6v-8.32h3.91v.55Z"/><path class="cls-3" d="M181.73,178.58h-.6v-8.32h.6Z"/><path d="M189.73,178.58l-4.92-6.72c-.14-.19-.25-.37-.34-.52h0v7.24h-.59v-8.32h.48l4.88,6.66.36.53h0a6.36,6.36,0,0,1,0-.72v-6.47h.6v8.32Z"/><path d="M192.91,170.81v3.37H196v.54h-3.06v3.86h-.6v-8.32h3.91v.55Z"/><path d="M201.27,178.73a3.86,3.86,0,0,1-2-.53,3.51,3.51,0,0,1-1.36-1.49,4.87,4.87,0,0,1-.48-2.2,5.18,5.18,0,0,1,.5-2.32,3.59,3.59,0,0,1,1.4-1.53,4.1,4.1,0,0,1,2.12-.54,3.69,3.69,0,0,1,2,.53,3.5,3.5,0,0,1,1.34,1.48,4.88,4.88,0,0,1,.47,2.17,5.34,5.34,0,0,1-.48,2.32,3.47,3.47,0,0,1-1.36,1.56A3.87,3.87,0,0,1,201.27,178.73Zm0-8.06a3.13,3.13,0,0,0-1.72.47,3.22,3.22,0,0,0-1.17,1.35,4.41,4.41,0,0,0-.41,2,4.63,4.63,0,0,0,.39,2,3,3,0,0,0,1.13,1.31,3.17,3.17,0,0,0,1.71.46,3.07,3.07,0,0,0,2.44-1,4.08,4.08,0,0,0,.88-2.79,4,4,0,0,0-.87-2.72A3,3,0,0,0,201.32,170.67Z"/><path d="M211.17,178.58,210,176.15a2.9,2.9,0,0,0-.64-1,1.35,1.35,0,0,0-.9-.28h-1v3.69h-.6v-8.32h2.32a2.42,2.42,0,0,1,1.72.6,2,2,0,0,1,.65,1.57,2.21,2.21,0,0,1-.53,1.51,2.42,2.42,0,0,1-1.43.77v0a2.26,2.26,0,0,1,1,1.21l1.26,2.64Zm-3.69-7.77v3.53h1.43a2.18,2.18,0,0,0,1.49-.49,1.75,1.75,0,0,0,.55-1.36,1.56,1.56,0,0,0-.49-1.23,2.11,2.11,0,0,0-1.44-.45Z"/><path d="M220.73,178.58V172.7l.06-1.25h0a6.8,6.8,0,0,1-.3.73l-2.95,6.4h-.2l-3-6.37a5.38,5.38,0,0,1-.26-.78h0a11.24,11.24,0,0,1,0,1.13v6h-.59v-8.32h.57l3.07,6.66a7.09,7.09,0,0,1,.27.71h0c.14-.41.23-.65.27-.73l3-6.64h.54v8.32Z"/><path d="M228.86,178.58l-1-2.58h-3.6l-.95,2.58h-.65l3.14-8.32h.57l3.1,8.32ZM226.12,171h0c-.07.25-.13.45-.19.61l-1.39,3.84h3.19l-1.4-3.83Z"/><path d="M232.34,170.81v7.77h-.59v-7.77h-2.4v-.55h5.39v.55Z"/><path d="M236.75,178.58h-.6v-8.32h.6Z"/><path d="M242.31,178.73a3.86,3.86,0,0,1-2-.53,3.51,3.51,0,0,1-1.36-1.49,4.87,4.87,0,0,1-.48-2.2,5.18,5.18,0,0,1,.5-2.32,3.55,3.55,0,0,1,1.41-1.53,4,4,0,0,1,2.11-.54,3.69,3.69,0,0,1,2,.53,3.5,3.5,0,0,1,1.34,1.48,4.88,4.88,0,0,1,.47,2.17,5.34,5.34,0,0,1-.48,2.32,3.47,3.47,0,0,1-1.36,1.56A3.85,3.85,0,0,1,242.31,178.73Zm.05-8.06a3.15,3.15,0,0,0-1.72.47,3.22,3.22,0,0,0-1.17,1.35,4.41,4.41,0,0,0-.41,2,4.63,4.63,0,0,0,.39,2,3,3,0,0,0,1.13,1.31,3.17,3.17,0,0,0,1.71.46,3.07,3.07,0,0,0,2.44-1,4.08,4.08,0,0,0,.88-2.79,4,4,0,0,0-.87-2.72A3,3,0,0,0,242.36,170.67Z"/><path d="M253.79,178.58l-4.92-6.72a4.52,4.52,0,0,1-.34-.52h0l0,.41v6.83h-.6v-8.32h.48l4.89,6.66.35.53h0c0-.26,0-.51,0-.72v-6.47h.59v8.32Z"/><path d="M259.36,177.6a3.27,3.27,0,0,0,1.83.58,2.33,2.33,0,0,0,1.48-.4,1.4,1.4,0,0,0,.5-1.17A1.44,1.44,0,0,0,263,176a1.66,1.66,0,0,0-.42-.52,10.27,10.27,0,0,0-1.26-.83,8.18,8.18,0,0,1-1.25-.85,2.17,2.17,0,0,1-.52-.67,2.09,2.09,0,0,1-.17-.86,1.91,1.91,0,0,1,.32-1.09,2.11,2.11,0,0,1,.9-.76,3,3,0,0,1,1.31-.27,4.46,4.46,0,0,1,1.5.26V171a3.68,3.68,0,0,0-1.58-.34,2.1,2.1,0,0,0-1.34.41,1.38,1.38,0,0,0-.5,1.09,1.62,1.62,0,0,0,.14.72,1.75,1.75,0,0,0,.47.54,11,11,0,0,0,1.19.77A7.6,7.6,0,0,1,263,175a2.34,2.34,0,0,1,.59.72,1.84,1.84,0,0,1,.18.85,2,2,0,0,1-.7,1.59,2.83,2.83,0,0,1-1.86.58,4.58,4.58,0,0,1-1-.14,3.49,3.49,0,0,1-.85-.3Z"/><path d="M265.56,178.58v-8.32h3.9v.55h-3.31v3.3h3.07v.55h-3.07v3.39h3.5v.53Z"/><path d="M275.79,178.58l-1.13-2.43a2.9,2.9,0,0,0-.64-1,1.35,1.35,0,0,0-.9-.28h-1v3.69h-.6v-8.32h2.32a2.42,2.42,0,0,1,1.72.6,2,2,0,0,1,.65,1.57,2.21,2.21,0,0,1-.53,1.51,2.42,2.42,0,0,1-1.43.77v0a2.26,2.26,0,0,1,1,1.21l1.26,2.64Zm-3.69-7.77v3.53h1.43a2.18,2.18,0,0,0,1.49-.49,1.75,1.75,0,0,0,.55-1.36,1.54,1.54,0,0,0-.5-1.23,2.06,2.06,0,0,0-1.43-.45Z"/><path d="M280.78,178.58h-.45l-3-8.32H278l2.41,6.7a3.45,3.45,0,0,1,.2.78h0a6.79,6.79,0,0,1,.24-.8l2.54-6.68H284Z"/><path d="M285.91,178.58h-.6v-8.32h.6Z"/><path d="M293.58,178.3a5.21,5.21,0,0,1-2.11.43,4,4,0,0,1-2-.52,3.58,3.58,0,0,1-1.36-1.47,4.69,4.69,0,0,1-.48-2.15,5,5,0,0,1,.52-2.3,3.79,3.79,0,0,1,1.47-1.6,4.05,4.05,0,0,1,2.14-.57,5.59,5.59,0,0,1,1.84.31v.63a4.55,4.55,0,0,0-1.85-.39,3.54,3.54,0,0,0-1.85.48,3.27,3.27,0,0,0-1.23,1.37,4.5,4.5,0,0,0-.43,2,4.16,4.16,0,0,0,.41,1.91,3,3,0,0,0,1.16,1.29,3.33,3.33,0,0,0,1.73.45,4.62,4.62,0,0,0,2.06-.45Z"/><path d="M295.43,178.58v-8.32h3.9v.55H296v3.3h3.07v.55H296v3.39h3.5v.53Z"/><path class="cls-3" d="M301.1,177.6a3.32,3.32,0,0,0,1.83.58,2.29,2.29,0,0,0,1.48-.4,1.4,1.4,0,0,0,.5-1.17,1.31,1.31,0,0,0-.14-.64,1.66,1.66,0,0,0-.42-.52,10.27,10.27,0,0,0-1.26-.83,8.74,8.74,0,0,1-1.25-.85,2.29,2.29,0,0,1-.51-.67,1.94,1.94,0,0,1-.18-.86,2,2,0,0,1,.32-1.09,2.11,2.11,0,0,1,.9-.76,3.07,3.07,0,0,1,1.31-.27,4.46,4.46,0,0,1,1.5.26V171a3.63,3.63,0,0,0-1.57-.34,2.06,2.06,0,0,0-1.34.41,1.36,1.36,0,0,0-.51,1.09,1.62,1.62,0,0,0,.14.72,1.79,1.79,0,0,0,.48.54,10,10,0,0,0,1.19.77,8.7,8.7,0,0,1,1.19.79,2.5,2.5,0,0,1,.59.72,2.19,2.19,0,0,1-.52,2.44,2.88,2.88,0,0,1-1.87.58,4.58,4.58,0,0,1-1-.14,3.66,3.66,0,0,1-.85-.3Z"/><path class="cls-4" d="M307.55,178.68a.45.45,0,0,1-.34-.13.48.48,0,0,1-.13-.34.45.45,0,0,1,.13-.34.46.46,0,0,1,.34-.14.49.49,0,0,1,.34.14.46.46,0,0,1,.14.34.45.45,0,0,1-.15.34A.46.46,0,0,1,307.55,178.68Z"/><path d="M4.06,140.29A17.84,17.84,0,0,0,0,137.63l.46-.53a19.35,19.35,0,0,1,4,2.57Zm1.24,3.27a87.35,87.35,0,0,1-4,7.8l-.62-.51a73.69,73.69,0,0,0,4-7.77Zm.12-9.63a19.07,19.07,0,0,0-4.15-2.83l.46-.5a17.4,17.4,0,0,1,4.13,2.73ZM14,140.1a34.2,34.2,0,0,1-.27,3.53,9.12,9.12,0,0,0,8,7.63,3.59,3.59,0,0,0-.48.63,9.28,9.28,0,0,1-7.75-6.84c-.8,3.91-2.84,5.83-8.07,6.93a2.13,2.13,0,0,0-.43-.6c7-1.39,8-4.22,8.28-11.28Zm7,1a60.87,60.87,0,0,0-7.52-5c-.86,2.81-2.73,4.23-6.74,5.11a2.14,2.14,0,0,0-.43-.57c6.05-1.27,7-3.7,7.17-10.4h.7a29.31,29.31,0,0,1-.53,5.21,65.21,65.21,0,0,1,7.8,5Zm-10.92,5.62c-.7-1.08-2-2.91-3.05-4.28l.45-.48c1.11,1.4,2.43,3.17,3.05,4.16Zm.09-10.18c-.65-1.06-1.89-2.83-2.93-4.15l.46-.46a46.66,46.66,0,0,1,2.9,4Zm6,10.15a28.79,28.79,0,0,0,3.32-4.53l.67.38A34.64,34.64,0,0,1,16.66,147Zm3.7-14.4a34,34,0,0,1-3,4.2l-.55-.31a29.93,29.93,0,0,0,2.88-4.25Z"/><path d="M28.42,140.27a24.44,24.44,0,0,0-4.4-2.64l.44-.53a26.2,26.2,0,0,1,4.34,2.55Zm-3.63,10.78a72.86,72.86,0,0,0,4.59-7.9l.52.48c-1.27,2.54-3.12,5.78-4.51,7.92Zm.84-20.48A28.07,28.07,0,0,1,30,133.4l-.44.58a25.48,25.48,0,0,0-4.34-2.93Zm20,18.94v.7H31.06v-.7h6.48v-16H32v-.7H44.09v.7H38.26v16Z"/><path d="M59.66,138.3c1.73,5.93,5.17,10.85,9.92,12.94a4.36,4.36,0,0,0-.53.62c-4.85-2.33-8.33-7.37-10.11-13.56H58.7c-1,5.11-3.5,10.71-10.12,13.59a3.54,3.54,0,0,0-.56-.53c6.48-2.74,9-8.14,10-13.06H48.48v-.7H58.1a40.75,40.75,0,0,0,.53-7.29h.7a48.91,48.91,0,0,1-.51,7.29H69.31v.7Z"/><path d="M93.48,146.87H83.38v3.89c0,.57-.15.79-.65.93a20.78,20.78,0,0,1-3.67.12,3.35,3.35,0,0,0-.32-.62c1.8.05,3.1.05,3.46,0s.5-.12.5-.45v-3.89H72.34v-.72H82.7v-1.44a20.9,20.9,0,0,0,5.09-2.21H76.56v-.69H88.73l.17-.05.53.36a21.39,21.39,0,0,1-6.05,3v1h10.1Zm-19.82-4.18H73v-3.86h2l-.51-7.2c1.35-.22,3.34-.75,4.47-1l.43.55a23.09,23.09,0,0,1-4.15.94l.12,1.7h3.91v.69H75.38l.12,1.81h3.92V137H75.55l.12,1.85h14.5c0-.55.12-1.18.17-1.85H86.23v-.69h4.2c0-.61.1-1.18.15-1.81h-4.2v-.69h4.25c0-.6.07-1.23.09-1.78H86.28v-.69h5.16c-.14,2.3-.33,5.47-.57,7.51h2v3.86h-.69v-3.16H73.66ZM85,138.52a14.38,14.38,0,0,0-2.07-1.61,18.22,18.22,0,0,1-2.61,1.77,3.81,3.81,0,0,0-.58-.5,15.76,15.76,0,0,0,2.59-1.61,17.94,17.94,0,0,0-2.08-1.15l.48-.46c.69.34,1.46.7,2.18,1.13a9.42,9.42,0,0,0,1.42-1.49l.69.22a13.9,13.9,0,0,1-1.56,1.63,13.55,13.55,0,0,1,2,1.51Zm0-4.23a16.14,16.14,0,0,0-2.11-1.46,18.85,18.85,0,0,1-2.47,1.7,2.6,2.6,0,0,0-.58-.48,15.7,15.7,0,0,0,2.45-1.58c-.67-.34-1.39-.7-2-1l.48-.5c.67.28,1.42.64,2.14,1a11.12,11.12,0,0,0,1.34-1.44l.7.16a15.88,15.88,0,0,1-1.49,1.61,14,14,0,0,1,2,1.37Z"/><path d="M102.77,136.45H96.19v-.69h6.58Zm1.41,12.65a38.68,38.68,0,0,1-7.24,2.71,4.17,4.17,0,0,0-.53-.62,32.07,32.07,0,0,0,7.13-2.4Zm-2.06-16.44H96.7V132h5.42Zm-2.69,6h15.15v9.62H99.43Zm.7,3h13.75v-2.26H100.13Zm0,2.95h13.75v-2.25H100.13Zm0,3h13.75v-2.33H100.13Zm10.68-14.67a4.1,4.1,0,0,1-.17,1.32c1.23,1.63,4.06,2.88,7.15,3.29a3.35,3.35,0,0,0-.45.6c-2.91-.48-5.55-1.7-6.89-3.27-.67,1.3-2.43,2.6-6.94,3.49a2.37,2.37,0,0,0-.45-.58c6.57-1.18,7-3.31,7-4.85v-.12h-3.55a11.82,11.82,0,0,1-1.9,2.81,2.57,2.57,0,0,0-.6-.43,12.88,12.88,0,0,0,2.79-4.85l.69.12c-.19.58-.38,1.1-.62,1.66h9.41l.12-.05.48.21a30.64,30.64,0,0,1-1.87,3.17l-.63-.19a18,18,0,0,0,1.47-2.45h-5.09ZM110,148.84a65,65,0,0,1,7.32,2.4l-.65.55a59.84,59.84,0,0,0-7.2-2.47Z"/><path d="M128.71,135.16h-8.52v-.7h8.52Zm-1,15.17h-6v1.24h-.65v-7.94h6.6Zm-6.55-12.87h6.6v.7h-6.6Zm0,3.07h6.6v.7h-6.6Zm.6,3.8v5.3h5.28v-5.3Zm3-10.73a18.55,18.55,0,0,0-1.85-3l.58-.36a16.89,16.89,0,0,1,1.84,3Zm14.35-1.83c0,11.6-.17,18.44,1.66,18.82.19,0,.41-1.44.5-3.34a6.33,6.33,0,0,0,.6.29c-.14,3.27-.48,4-1.25,3.77-2.4-.55-2.23-7.75-2.23-18.84h-5.11v7.92h4.06v.7h-4.06v10.8h-.7v-10.8h-3.84v-.7h3.84v-7.92h-3.62v-.7Z"/><path d="M146.74,141c0,3.22-.29,7.73-2.21,11a2.05,2.05,0,0,0-.55-.43c1.84-3.14,2.06-7.41,2.06-10.54v-6.12h8.14v-4.56h.69v1.78h8.76v.7h-8.76v2.08h9.63l.17,0,.48.21a35.26,35.26,0,0,1-1.73,3.48l-.63-.24a17.53,17.53,0,0,0,1.35-2.71H154.9v2l6.72-.48.07.67-6.79.48v1.2c0,.72.14.91.93.91h6.56a17.53,17.53,0,0,0,2-.09c0,.19.07.45.09.6a14.7,14.7,0,0,1-2,.07h-6.62c-1.3,0-1.61-.34-1.61-1.49v-1.15l-5.62.43-.07-.67,5.69-.44v-2.06h-7.46ZM166,150.9a2.22,2.22,0,0,0-.33.7h-5.45c-3.6,0-6.39-.48-8.38-2.64a12.69,12.69,0,0,1-5.11,3,2.36,2.36,0,0,0-.41-.56,11.51,11.51,0,0,0,5.09-3,11.52,11.52,0,0,1-1.8-3.72,13,13,0,0,1-2.21,2.38,7.72,7.72,0,0,0-.62-.46,12.63,12.63,0,0,0,4.1-5.92l.7.14a14.25,14.25,0,0,1-.77,1.9h3.72l.12-.05.43.19a12.31,12.31,0,0,1-2.76,5.54c1.92,2,4.61,2.45,7.92,2.45Zm-15.58-7.44c-.14.22-.26.43-.4.63a11.05,11.05,0,0,0,1.87,3.88,11.45,11.45,0,0,0,2.35-4.51Zm12,5.64c-.89,0-1.13-.19-1.13-1v-4.73h-3.55v1.49a5.69,5.69,0,0,1-2.26,4.75A1.85,1.85,0,0,0,155,149a5,5,0,0,0,2-4.22v-2.16H162v5.44c0,.44.08.51.48.51h1.37c.31,0,.41-.22.48-1.42a1.66,1.66,0,0,0,.58.24c-.05,1.35-.31,1.68-.94,1.68Z"/><text/></g></g></svg>